
<svg viewBox="0 0 1580 1068" xmlns="http://www.w3.org/2000/svg" xmlns:xlink="http://www.w3.org/1999/xlink">
  <linearGradient x1="-2.80587121%" y1="87.4389868%" x2="106.789773%" y2="6.32293537%" id="linearGradient-1">
      <stop stop-color="#4001F5" offset="0%"></stop>
      <stop stop-color="#F037A5" offset="100%"></stop>
  </linearGradient>
  <path d="M876.788051,637.963387 C871.036422,612.565595 868,586.137395 868,559 C868,362.386629 1027.38663,203 1224,203 C1420.61337,203 1580,362.386629 1580,559 C1580,755.613371 1420.61337,915 1224,915 C1154.01631,915 1088.74916,894.806137 1033.70762,859.9275 C1027.76267,975.84264 931.89359,1068 814.5,1068 C693.273497,1068 595,969.726503 595,848.5 C595,727.273497 693.273497,629 814.5,629 C836.136608,629 857.042039,632.130543 876.788051,637.963387 Z M317,635 C141.925734,635 0,492.850408 0,317.5 C0,142.149592 141.925734,0 317,0 C492.074266,0 634,142.149592 634,317.5 C634,492.850408 492.074266,635 317,635 Z" id="Oval-2-Copy-3" fill="url(#linearGradient-1)" transform="translate(790.000000, 534.000000) scale(-1, 1) translate(-790.000000, -534.000000) "></path>
</svg>
