
<svg width="1650px" height="1114px" viewBox="0 0 1650 1114" xmlns="http://www.w3.org/2000/svg" xmlns:xlink="http://www.w3.org/1999/xlink">
  <defs>
    <linearGradient x1="-2.80587121%" y1="87.4389868%" x2="106.789773%" y2="6.32293537%" id="linearGradient-1">
      <stop stop-color="#4001F5" offset="0%"></stop>
      <stop stop-color="#F037A5" offset="100%"></stop>
    </linearGradient>
  </defs>
    <g stroke="none" stroke-width="1" fill="none">
      <path d="M915.841885,664.435695 C910.052967,638.381532 907,611.297295 907,583.5 C907,378.326215 1073.32622,212 1278.5,212 C1483.67378,212 1650,378.326215 1650,583.5 C1650,788.673785 1483.67378,955 1278.5,955 C1205.3521,955 1137.1419,933.859237 1079.64605,897.354378 C1072.97843,1018.12412 972.93572,1114 850.5,1114 C723.75065,1114 621,1011.24935 621,884.5 C621,757.75065 723.75065,655 850.5,655 C873.20128,655 895.132727,658.29605 915.841885,664.435695 Z M216,811 C198.879173,811 185,797.120827 185,780 C185,762.879173 198.879173,749 216,749 C233.120827,749 247,762.879173 247,780 C247,797.120827 233.120827,811 216,811 Z M331,662 C148.193748,662 0,513.806252 0,331 C0,148.193748 148.193748,0 331,0 C513.806252,0 662,148.193748 662,331 C662,513.806252 513.806252,662 331,662 Z" fill="url(#linearGradient-1)"></path>
    </g>
</svg>
